%
M48
M72
T01C0.01181
T02C0.02362
T03C0.03200
T04C0.04000
T05C0.12598
%
T01
X121170Y92735
X116170Y96485
X106170Y100235
X96170Y103985
X136170Y132735
X146170Y147735
X156170Y142735
X166170Y138985
X171170Y151485
X161170Y155235
X151170Y158985
X141170Y162735
X131170Y166485
X121170Y170235
X101170Y177735
X91170Y173985
X146170Y177735
X156170Y173985
X161170Y181485
X166170Y170235
X171170Y170235
X176170Y166485
X186170Y162735
X189920Y173985
X201170Y177735
X219920Y185235
X239920Y181485
X236170Y165235
X243670Y160235
X228670Y151485
X222420Y155235
X216170Y151485
X212420Y147735
X207420Y155235
X197420Y158985
X206170Y140235
X191170Y136485
X185855Y136643
X232420Y143985
X241170Y105235
X221170Y100235
X211170Y96485
X205540Y85461
X291170Y92735
X341170Y132735
X331170Y143985
X321170Y140235
X321170Y151485
X311170Y147735
X311170Y155235
X331170Y160235
X301170Y177735
X291170Y163985
X281170Y181485
X301170Y136485
X181170Y185235
T02
X351170Y190235
X362420Y185235
X358670Y197735
T03
X367420Y257735
X367420Y266485
X337420Y266485
X337420Y257735
T04
X64920Y28985
X64920Y38985
X64920Y48985
X64920Y58985
X53670Y58985
X53670Y48985
X53670Y68985
X53670Y78985
X97420Y78985
X97420Y68985
X97420Y58985
X97420Y48985
X108670Y48985
X108670Y38985
X108670Y28985
X131170Y48985
X131170Y58985
X131170Y68985
X131170Y78985
X142420Y58985
X142420Y48985
X142420Y38985
X142420Y28985
X169920Y48985
X169920Y58985
X169920Y68985
X169920Y78985
X181170Y58985
X181170Y48985
X181170Y38985
X181170Y28985
X211170Y48985
X211170Y58985
X211170Y68985
X211170Y78985
X222420Y58985
X222420Y48985
X222420Y38985
X222420Y28985
X258670Y48985
X269920Y48985
X269920Y38985
X269920Y28985
X269920Y58985
X258670Y58985
X258670Y68985
X258670Y78985
X246170Y116485
X241170Y121485
X236170Y116485
X231170Y121485
X226170Y116485
X221170Y121485
X216170Y116485
X211170Y121485
X206170Y116485
X201170Y121485
X196170Y116485
X191170Y121485
X186170Y116485
X181170Y121485
X176170Y116485
X171170Y121485
X166170Y116485
X161170Y121485
X156170Y116485
X151170Y121485
X146170Y116485
X141170Y121485
X136170Y116485
X131170Y121485
X126170Y116485
X121170Y121485
X116170Y116485
X111170Y121485
X106170Y116485
X96170Y116485
X86170Y116485
X76170Y116485
X66170Y116485
X56170Y116485
X108670Y58985
X281170Y116485
X291170Y116485
X301170Y116485
X311170Y116485
X321170Y116485
X331170Y116485
X341170Y116485
X351170Y116485
X241170Y201485
X236170Y206485
X231170Y201485
X226170Y206485
X221170Y201485
X216170Y206485
X211170Y201485
X206170Y206485
X201170Y201485
X196170Y206485
X191170Y201485
X186170Y206485
X181170Y201485
X176170Y206485
X171170Y201485
X166170Y206485
X161170Y201485
X156170Y206485
X151170Y201485
X146170Y206485
X141170Y201485
X136170Y206485
X131170Y201485
X126170Y206485
X121170Y201485
X116170Y206485
X111170Y201485
X106170Y206485
X96170Y206485
X104920Y233985
X104920Y243985
X104920Y253985
X94920Y253985
X94920Y263985
X104920Y263985
X94920Y273985
X94920Y283985
X69920Y263985
X59920Y263985
X59920Y253985
X69920Y253985
X69920Y243985
X69920Y233985
X59920Y273985
X59920Y283985
X129920Y283985
X129920Y273985
X129920Y263985
X139920Y263985
X139920Y253985
X129920Y253985
X139920Y243985
X139920Y233985
X169920Y253985
X169920Y263985
X179920Y263985
X179920Y253985
X179920Y243985
X179920Y233985
X209920Y253985
X219920Y253985
X219920Y243985
X219920Y233985
X219920Y263985
X209920Y263985
X209920Y273985
X209920Y283985
X169920Y283985
X169920Y273985
X254920Y273985
X254920Y283985
X254920Y263985
X264920Y263985
X264920Y253985
X254920Y253985
X264920Y243985
X264920Y233985
X287420Y243985
X297420Y243985
X307420Y243985
X317420Y243985
X334920Y242735
X344920Y242735
X354920Y242735
X364920Y242735
X364920Y275235
X354920Y275235
X344920Y275235
X334920Y275235
X321170Y278985
X311170Y278985
X301170Y278985
X291170Y278985
X291170Y206485
X281170Y206485
X301170Y206485
X311170Y206485
X321170Y206485
X331170Y206485
X341170Y206485
X351170Y206485
X246170Y206485
T05
X60855Y159280
X356131Y41170
M30
