G75*
%MOIN*%
%OFA0B0*%
%FSLAX25Y25*%
%IPPOS*%
%LPD*%
%AMOC8*
5,1,8,0,0,1.08239X$1,22.5*
%
%ADD10C,0.06000*%
%ADD11C,0.06000*%
%ADD12R,0.05000X0.10000*%
%ADD13OC8,0.05200*%
%ADD14C,0.01200*%
%ADD15R,0.02781X0.02781*%
%ADD16C,0.01000*%
%ADD17R,0.03962X0.03962*%
%ADD18C,0.02400*%
%ADD19C,0.01600*%
%ADD20C,0.02781*%
%ADD21C,0.16598*%
D10*
X0056170Y0110485D02*
X0056170Y0116485D01*
X0066170Y0116485D02*
X0066170Y0110485D01*
X0076170Y0110485D02*
X0076170Y0116485D01*
X0086170Y0116485D02*
X0086170Y0110485D01*
X0096170Y0110485D02*
X0096170Y0116485D01*
X0106170Y0116485D02*
X0106170Y0110485D01*
X0116170Y0110485D02*
X0116170Y0116485D01*
X0111170Y0121485D02*
X0111170Y0127485D01*
X0121170Y0127485D02*
X0121170Y0121485D01*
X0126170Y0116485D02*
X0126170Y0110485D01*
X0136170Y0110485D02*
X0136170Y0116485D01*
X0131170Y0121485D02*
X0131170Y0127485D01*
X0141170Y0127485D02*
X0141170Y0121485D01*
X0146170Y0116485D02*
X0146170Y0110485D01*
X0156170Y0110485D02*
X0156170Y0116485D01*
X0151170Y0121485D02*
X0151170Y0127485D01*
X0161170Y0127485D02*
X0161170Y0121485D01*
X0166170Y0116485D02*
X0166170Y0110485D01*
X0176170Y0110485D02*
X0176170Y0116485D01*
X0171170Y0121485D02*
X0171170Y0127485D01*
X0181170Y0127485D02*
X0181170Y0121485D01*
X0186170Y0116485D02*
X0186170Y0110485D01*
X0196170Y0110485D02*
X0196170Y0116485D01*
X0191170Y0121485D02*
X0191170Y0127485D01*
X0201170Y0127485D02*
X0201170Y0121485D01*
X0206170Y0116485D02*
X0206170Y0110485D01*
X0216170Y0110485D02*
X0216170Y0116485D01*
X0211170Y0121485D02*
X0211170Y0127485D01*
X0221170Y0127485D02*
X0221170Y0121485D01*
X0226170Y0116485D02*
X0226170Y0110485D01*
X0236170Y0110485D02*
X0236170Y0116485D01*
X0231170Y0121485D02*
X0231170Y0127485D01*
X0241170Y0127485D02*
X0241170Y0121485D01*
X0246170Y0116485D02*
X0246170Y0110485D01*
X0281170Y0110485D02*
X0281170Y0116485D01*
X0291170Y0116485D02*
X0291170Y0110485D01*
X0301170Y0110485D02*
X0301170Y0116485D01*
X0311170Y0116485D02*
X0311170Y0110485D01*
X0321170Y0110485D02*
X0321170Y0116485D01*
X0331170Y0116485D02*
X0331170Y0110485D01*
X0341170Y0110485D02*
X0341170Y0116485D01*
X0351170Y0116485D02*
X0351170Y0110485D01*
X0241170Y0195485D02*
X0241170Y0201485D01*
X0236170Y0206485D02*
X0236170Y0212485D01*
X0226170Y0212485D02*
X0226170Y0206485D01*
X0221170Y0201485D02*
X0221170Y0195485D01*
X0231170Y0195485D02*
X0231170Y0201485D01*
X0216170Y0206485D02*
X0216170Y0212485D01*
X0206170Y0212485D02*
X0206170Y0206485D01*
X0201170Y0201485D02*
X0201170Y0195485D01*
X0211170Y0195485D02*
X0211170Y0201485D01*
X0196170Y0206485D02*
X0196170Y0212485D01*
X0186170Y0212485D02*
X0186170Y0206485D01*
X0181170Y0201485D02*
X0181170Y0195485D01*
X0171170Y0195485D02*
X0171170Y0201485D01*
X0176170Y0206485D02*
X0176170Y0212485D01*
X0166170Y0212485D02*
X0166170Y0206485D01*
X0161170Y0201485D02*
X0161170Y0195485D01*
X0151170Y0195485D02*
X0151170Y0201485D01*
X0146170Y0206485D02*
X0146170Y0212485D01*
X0156170Y0212485D02*
X0156170Y0206485D01*
X0141170Y0201485D02*
X0141170Y0195485D01*
X0131170Y0195485D02*
X0131170Y0201485D01*
X0126170Y0206485D02*
X0126170Y0212485D01*
X0136170Y0212485D02*
X0136170Y0206485D01*
X0121170Y0201485D02*
X0121170Y0195485D01*
X0111170Y0195485D02*
X0111170Y0201485D01*
X0106170Y0206485D02*
X0106170Y0212485D01*
X0096170Y0212485D02*
X0096170Y0206485D01*
X0116170Y0206485D02*
X0116170Y0212485D01*
X0191170Y0201485D02*
X0191170Y0195485D01*
X0246170Y0206485D02*
X0246170Y0212485D01*
X0281170Y0212485D02*
X0281170Y0206485D01*
X0291170Y0206485D02*
X0291170Y0212485D01*
X0301170Y0212485D02*
X0301170Y0206485D01*
X0311170Y0206485D02*
X0311170Y0212485D01*
X0321170Y0212485D02*
X0321170Y0206485D01*
X0331170Y0206485D02*
X0331170Y0212485D01*
X0341170Y0212485D02*
X0341170Y0206485D01*
X0351170Y0206485D02*
X0351170Y0212485D01*
D11*
X0354920Y0242735D03*
X0364920Y0242735D03*
X0344920Y0242735D03*
X0334920Y0242735D03*
X0317420Y0243985D03*
X0307420Y0243985D03*
X0297420Y0243985D03*
X0287420Y0243985D03*
X0264920Y0243985D03*
X0264920Y0233985D03*
X0264920Y0253985D03*
X0254920Y0253985D03*
X0254920Y0263985D03*
X0264920Y0263985D03*
X0254920Y0273985D03*
X0254920Y0283985D03*
X0291170Y0278985D03*
X0301170Y0278985D03*
X0311170Y0278985D03*
X0321170Y0278985D03*
X0334920Y0275235D03*
X0344920Y0275235D03*
X0354920Y0275235D03*
X0364920Y0275235D03*
X0219920Y0263985D03*
X0209920Y0263985D03*
X0209920Y0253985D03*
X0219920Y0253985D03*
X0219920Y0243985D03*
X0219920Y0233985D03*
X0179920Y0233985D03*
X0179920Y0243985D03*
X0179920Y0253985D03*
X0169920Y0253985D03*
X0169920Y0263985D03*
X0179920Y0263985D03*
X0169920Y0273985D03*
X0169920Y0283985D03*
X0139920Y0263985D03*
X0129920Y0263985D03*
X0129920Y0253985D03*
X0139920Y0253985D03*
X0139920Y0243985D03*
X0139920Y0233985D03*
X0104920Y0233985D03*
X0104920Y0243985D03*
X0104920Y0253985D03*
X0094920Y0253985D03*
X0094920Y0263985D03*
X0104920Y0263985D03*
X0094920Y0273985D03*
X0094920Y0283985D03*
X0069920Y0263985D03*
X0059920Y0263985D03*
X0059920Y0253985D03*
X0069920Y0253985D03*
X0069920Y0243985D03*
X0069920Y0233985D03*
X0059920Y0273985D03*
X0059920Y0283985D03*
X0129920Y0283985D03*
X0129920Y0273985D03*
X0209920Y0273985D03*
X0209920Y0283985D03*
X0211170Y0078985D03*
X0211170Y0068985D03*
X0211170Y0058985D03*
X0211170Y0048985D03*
X0222420Y0048985D03*
X0222420Y0038985D03*
X0222420Y0028985D03*
X0222420Y0058985D03*
X0258670Y0058985D03*
X0269920Y0058985D03*
X0269920Y0048985D03*
X0258670Y0048985D03*
X0269920Y0038985D03*
X0269920Y0028985D03*
X0258670Y0068985D03*
X0258670Y0078985D03*
X0181170Y0058985D03*
X0181170Y0048985D03*
X0181170Y0038985D03*
X0181170Y0028985D03*
X0169920Y0048985D03*
X0169920Y0058985D03*
X0169920Y0068985D03*
X0169920Y0078985D03*
X0142420Y0058985D03*
X0142420Y0048985D03*
X0142420Y0038985D03*
X0142420Y0028985D03*
X0131170Y0048985D03*
X0131170Y0058985D03*
X0131170Y0068985D03*
X0131170Y0078985D03*
X0108670Y0058985D03*
X0108670Y0048985D03*
X0108670Y0038985D03*
X0108670Y0028985D03*
X0097420Y0048985D03*
X0097420Y0058985D03*
X0097420Y0068985D03*
X0097420Y0078985D03*
X0064920Y0058985D03*
X0064920Y0048985D03*
X0064920Y0038985D03*
X0064920Y0028985D03*
X0053670Y0048985D03*
X0053670Y0058985D03*
X0053670Y0068985D03*
X0053670Y0078985D03*
D12*
X0079920Y0031485D03*
X0089920Y0031485D03*
X0121170Y0031485D03*
X0131170Y0031485D03*
X0157420Y0031485D03*
X0167420Y0031485D03*
X0196170Y0031485D03*
X0206170Y0031485D03*
X0239920Y0031485D03*
X0249920Y0031485D03*
D13*
X0337420Y0257735D03*
X0337420Y0266485D03*
X0367420Y0266485D03*
X0367420Y0257735D03*
D14*
X0052420Y0038985D02*
X0047420Y0043985D01*
X0047420Y0072735D01*
X0053670Y0078985D01*
X0081170Y0078985D01*
X0091170Y0088985D01*
X0091170Y0173985D01*
X0101170Y0177735D02*
X0101170Y0102735D01*
X0097420Y0098985D01*
X0097420Y0078985D01*
X0096170Y0078985D01*
X0089920Y0072735D01*
X0089920Y0043985D01*
X0094920Y0038985D01*
X0089920Y0033985D01*
X0089920Y0031485D01*
X0079920Y0031485D02*
X0079920Y0060235D01*
X0071170Y0068985D01*
X0053670Y0068985D01*
X0064920Y0058985D02*
X0072420Y0051485D01*
X0072420Y0035235D01*
X0066170Y0028985D01*
X0064920Y0028985D01*
X0064920Y0038985D02*
X0052420Y0038985D01*
X0094920Y0038985D02*
X0108670Y0038985D01*
X0113670Y0033985D02*
X0113670Y0053985D01*
X0108670Y0058985D01*
X0117420Y0066485D02*
X0114920Y0068985D01*
X0097420Y0068985D01*
X0117420Y0066485D02*
X0117420Y0038985D01*
X0121170Y0035235D01*
X0121170Y0031485D01*
X0113670Y0033985D02*
X0108670Y0028985D01*
X0123670Y0043985D02*
X0128670Y0038985D01*
X0131170Y0038985D01*
X0131170Y0031485D01*
X0131170Y0038985D02*
X0142420Y0038985D01*
X0148670Y0035235D02*
X0148670Y0052735D01*
X0142420Y0058985D01*
X0151170Y0068985D02*
X0131170Y0068985D01*
X0123670Y0073985D02*
X0123670Y0043985D01*
X0142420Y0028985D02*
X0148670Y0035235D01*
X0157420Y0031485D02*
X0157420Y0062735D01*
X0151170Y0068985D01*
X0163670Y0073985D02*
X0163670Y0041485D01*
X0166170Y0038985D01*
X0167420Y0038985D01*
X0167420Y0031485D01*
X0167420Y0038985D02*
X0181170Y0038985D01*
X0188670Y0035235D02*
X0188670Y0051485D01*
X0181170Y0058985D01*
X0189920Y0068985D02*
X0169920Y0068985D01*
X0163670Y0073985D02*
X0168670Y0078985D01*
X0169920Y0078985D01*
X0203670Y0078985D01*
X0221170Y0096485D01*
X0221170Y0100235D01*
X0221170Y0121485D01*
X0221170Y0132735D01*
X0228670Y0140235D01*
X0228670Y0151485D01*
X0222420Y0155235D02*
X0222420Y0140235D01*
X0211170Y0128985D01*
X0211170Y0121485D01*
X0211170Y0096485D01*
X0198670Y0083985D01*
X0167420Y0083985D01*
X0162420Y0078985D01*
X0131170Y0078985D01*
X0128670Y0078985D01*
X0123670Y0073985D01*
X0121170Y0092735D02*
X0121170Y0121485D01*
X0121170Y0170235D01*
X0131170Y0166485D02*
X0131170Y0121485D01*
X0136170Y0116485D02*
X0136170Y0132735D01*
X0141170Y0121485D02*
X0141170Y0162735D01*
X0151170Y0158985D02*
X0151170Y0121485D01*
X0146170Y0116485D02*
X0146170Y0147735D01*
X0156170Y0142735D02*
X0156170Y0116485D01*
X0161170Y0121485D02*
X0161170Y0155235D01*
X0171170Y0151485D02*
X0171170Y0121485D01*
X0166170Y0116485D02*
X0166170Y0138985D01*
X0191170Y0136485D02*
X0191170Y0121485D01*
X0196170Y0116485D02*
X0196170Y0152735D01*
X0193670Y0155235D01*
X0193670Y0185235D01*
X0191170Y0187735D01*
X0191170Y0201485D01*
X0186170Y0206485D02*
X0186170Y0220235D01*
X0172420Y0233985D01*
X0139920Y0233985D01*
X0154920Y0225235D02*
X0166170Y0213985D01*
X0166170Y0206485D01*
X0166170Y0170235D01*
X0171170Y0170235D02*
X0171170Y0201485D01*
X0176170Y0206485D02*
X0176170Y0222735D01*
X0169920Y0228985D01*
X0109920Y0228985D01*
X0104920Y0233985D01*
X0096170Y0233985D02*
X0104920Y0225235D01*
X0154920Y0225235D01*
X0156170Y0206485D02*
X0156170Y0173985D01*
X0161170Y0181485D02*
X0161170Y0201485D01*
X0146170Y0206485D02*
X0146170Y0177735D01*
X0176170Y0166485D02*
X0176170Y0206485D01*
X0181170Y0201485D02*
X0181170Y0185235D01*
X0189920Y0173985D02*
X0189920Y0153985D01*
X0191170Y0152735D01*
X0191170Y0136485D01*
X0203670Y0142735D02*
X0206170Y0140235D01*
X0203670Y0142735D02*
X0203670Y0158985D01*
X0204920Y0160235D01*
X0204920Y0183985D01*
X0201170Y0187735D01*
X0201170Y0201485D01*
X0196170Y0206485D02*
X0196170Y0217735D01*
X0179920Y0233985D01*
X0206170Y0220235D02*
X0219920Y0233985D01*
X0229920Y0233985D02*
X0264920Y0233985D01*
X0241170Y0216485D02*
X0237420Y0220235D01*
X0232420Y0220235D01*
X0226170Y0213985D01*
X0226170Y0206485D01*
X0221170Y0201485D02*
X0221170Y0192735D01*
X0232420Y0181485D01*
X0232420Y0143985D01*
X0236170Y0141485D02*
X0236170Y0165235D01*
X0243670Y0160235D02*
X0243670Y0138985D01*
X0241170Y0136485D01*
X0241170Y0121485D01*
X0241170Y0105235D01*
X0241170Y0097735D01*
X0222420Y0078985D01*
X0211170Y0078985D01*
X0203670Y0071485D01*
X0203670Y0043985D01*
X0208045Y0039610D01*
X0206170Y0037735D01*
X0206170Y0031485D01*
X0196170Y0031485D02*
X0196170Y0062735D01*
X0189920Y0068985D01*
X0211170Y0068985D02*
X0231170Y0068985D01*
X0239920Y0060235D01*
X0239920Y0031485D01*
X0231170Y0035235D02*
X0231170Y0050235D01*
X0222420Y0058985D01*
X0222420Y0038985D02*
X0208670Y0038985D01*
X0208045Y0039610D01*
X0222420Y0028985D02*
X0224920Y0028985D01*
X0231170Y0035235D01*
X0249920Y0037735D02*
X0249920Y0031485D01*
X0249920Y0037735D02*
X0254295Y0042110D01*
X0257420Y0038985D01*
X0269920Y0038985D01*
X0269920Y0030235D02*
X0278670Y0038985D01*
X0278670Y0050235D01*
X0269920Y0058985D01*
X0254295Y0042110D02*
X0251170Y0045235D01*
X0251170Y0072735D01*
X0257420Y0078985D01*
X0258670Y0078985D01*
X0258670Y0171485D01*
X0241170Y0188985D01*
X0241170Y0201485D01*
X0241170Y0216485D01*
X0229920Y0233985D02*
X0216170Y0220235D01*
X0216170Y0206485D01*
X0216170Y0151485D01*
X0218670Y0153985D02*
X0218670Y0183985D01*
X0219920Y0185235D01*
X0207420Y0191485D02*
X0207420Y0155235D01*
X0211170Y0148985D02*
X0212420Y0147735D01*
X0211170Y0148985D02*
X0211170Y0201485D01*
X0206170Y0206485D02*
X0206170Y0220235D01*
X0206170Y0206485D02*
X0206170Y0192735D01*
X0207420Y0191485D01*
X0197420Y0187735D02*
X0196170Y0188985D01*
X0196170Y0206485D01*
X0186170Y0206485D02*
X0186170Y0162735D01*
X0197420Y0158985D02*
X0197420Y0187735D01*
X0201170Y0177735D02*
X0201170Y0121485D01*
X0206170Y0116485D02*
X0206170Y0128985D01*
X0219920Y0142735D01*
X0219920Y0152735D01*
X0218670Y0153985D01*
X0236170Y0141485D02*
X0226170Y0131485D01*
X0226170Y0116485D01*
X0236170Y0116485D02*
X0236170Y0136485D01*
X0239920Y0140235D01*
X0239920Y0181485D01*
X0281170Y0181485D02*
X0281170Y0206485D01*
X0291170Y0206485D02*
X0291170Y0163985D01*
X0301170Y0177735D02*
X0301170Y0206485D01*
X0311170Y0206485D02*
X0311170Y0155235D01*
X0311170Y0147735D02*
X0311170Y0116485D01*
X0301170Y0116485D02*
X0301170Y0136485D01*
X0321170Y0140235D02*
X0321170Y0116485D01*
X0331170Y0116485D02*
X0331170Y0143985D01*
X0321170Y0151485D02*
X0321170Y0206485D01*
X0331170Y0206485D02*
X0331170Y0160235D01*
X0341170Y0132735D02*
X0341170Y0116485D01*
X0291170Y0116485D02*
X0291170Y0092735D01*
X0269920Y0030235D02*
X0269920Y0028985D01*
X0188670Y0035235D02*
X0182420Y0028985D01*
X0181170Y0028985D01*
X0116170Y0096485D02*
X0116170Y0116485D01*
X0106170Y0116485D02*
X0106170Y0100235D01*
X0096170Y0103985D02*
X0096170Y0116485D01*
X0096170Y0233985D02*
X0069920Y0233985D01*
D15*
X0101170Y0177735D03*
X0091170Y0173985D03*
X0121170Y0170235D03*
X0131170Y0166485D03*
X0141170Y0162735D03*
X0151170Y0158985D03*
X0161170Y0155235D03*
X0171170Y0151485D03*
X0166170Y0138985D03*
X0156170Y0142735D03*
X0146170Y0147735D03*
X0136170Y0132735D03*
X0096170Y0103985D03*
X0106170Y0100235D03*
X0116170Y0096485D03*
X0121170Y0092735D03*
X0191170Y0136485D03*
X0206170Y0140235D03*
X0212420Y0147735D03*
X0216170Y0151485D03*
X0222420Y0155235D03*
X0228670Y0151485D03*
X0232420Y0143985D03*
X0243670Y0160235D03*
X0236170Y0165235D03*
X0239920Y0181485D03*
X0219920Y0185235D03*
X0201170Y0177735D03*
X0189920Y0173985D03*
X0186170Y0162735D03*
X0176170Y0166485D03*
X0171170Y0170235D03*
X0166170Y0170235D03*
X0156170Y0173985D03*
X0161170Y0181485D03*
X0146170Y0177735D03*
X0181170Y0185235D03*
X0197420Y0158985D03*
X0207420Y0155235D03*
X0241170Y0105235D03*
X0221170Y0100235D03*
X0211170Y0096485D03*
X0291170Y0092735D03*
X0341170Y0132735D03*
X0331170Y0143985D03*
X0321170Y0140235D03*
X0321170Y0151485D03*
X0311170Y0147735D03*
X0311170Y0155235D03*
X0331170Y0160235D03*
X0301170Y0177735D03*
X0291170Y0163985D03*
X0281170Y0181485D03*
X0301170Y0136485D03*
D16*
X0362420Y0185235D02*
X0362420Y0240235D01*
X0364920Y0242735D01*
X0364920Y0255235D01*
X0367420Y0257735D01*
X0372420Y0262735D01*
X0372420Y0277735D01*
X0367420Y0282735D01*
X0363670Y0282735D01*
X0356170Y0275235D01*
X0354920Y0275235D01*
X0354920Y0265235D02*
X0364920Y0275235D01*
X0367420Y0272735D01*
X0367420Y0266485D01*
X0354920Y0265235D02*
X0354920Y0242735D01*
X0354920Y0222735D01*
X0358670Y0218985D01*
X0358670Y0197735D01*
X0351170Y0190235D02*
X0346170Y0195235D01*
X0346170Y0222735D01*
X0344920Y0223985D01*
X0344920Y0242735D01*
X0334920Y0252735D01*
X0334920Y0257735D01*
X0337420Y0257735D01*
X0334920Y0257735D02*
X0334920Y0266485D01*
X0337420Y0266485D01*
X0334920Y0266485D02*
X0334920Y0275235D01*
X0321170Y0278985D02*
X0321170Y0247735D01*
X0317420Y0243985D01*
X0291170Y0217735D01*
X0291170Y0206485D01*
X0281170Y0206485D02*
X0281170Y0217735D01*
X0307420Y0243985D01*
X0307420Y0275235D01*
X0311170Y0278985D01*
X0259920Y0268985D02*
X0259920Y0238985D01*
X0264920Y0233985D01*
X0254920Y0253985D02*
X0248670Y0260235D01*
X0248670Y0276485D01*
X0254920Y0282735D01*
X0254920Y0283985D01*
X0254920Y0273985D02*
X0259920Y0268985D01*
X0214920Y0268985D02*
X0214920Y0240235D01*
X0219920Y0235235D01*
X0219920Y0233985D01*
X0209920Y0253985D02*
X0204920Y0258985D01*
X0204920Y0280235D01*
X0208670Y0283985D01*
X0209920Y0283985D01*
X0209920Y0273985D02*
X0214920Y0268985D01*
X0174920Y0268985D02*
X0174920Y0238985D01*
X0179920Y0233985D01*
X0169920Y0253985D02*
X0163670Y0260235D01*
X0163670Y0277735D01*
X0169920Y0283985D01*
X0169920Y0273985D02*
X0174920Y0268985D01*
X0134920Y0268985D02*
X0129920Y0273985D01*
X0134920Y0268985D02*
X0134920Y0237735D01*
X0138670Y0233985D01*
X0139920Y0233985D01*
X0129920Y0253985D02*
X0124920Y0258985D01*
X0124920Y0281485D01*
X0127420Y0283985D01*
X0129920Y0283985D01*
X0099920Y0268985D02*
X0099920Y0238985D01*
X0104920Y0233985D01*
X0094920Y0253985D02*
X0088670Y0260235D01*
X0088670Y0280235D01*
X0092420Y0283985D01*
X0094920Y0283985D01*
X0094920Y0273985D02*
X0099920Y0268985D01*
X0064920Y0270235D02*
X0064920Y0238985D01*
X0069920Y0233985D01*
X0059920Y0253985D02*
X0053670Y0260235D01*
X0053670Y0278985D01*
X0058670Y0283985D01*
X0059920Y0283985D01*
X0059920Y0273985D02*
X0061170Y0273985D01*
X0064920Y0270235D01*
D17*
X0351170Y0190235D03*
X0362420Y0185235D03*
X0358670Y0197735D03*
D18*
X0351170Y0190235D02*
X0351170Y0116485D01*
X0351170Y0090235D01*
X0319920Y0058985D01*
X0258670Y0058985D01*
D19*
X0216170Y0096091D02*
X0205540Y0085461D01*
X0216170Y0096091D02*
X0216170Y0116485D01*
X0186170Y0116485D02*
X0186170Y0136328D01*
X0185855Y0136643D01*
X0126170Y0116485D02*
X0126170Y0177735D01*
X0131170Y0182735D01*
X0131170Y0201485D01*
X0297420Y0243985D02*
X0297420Y0272735D01*
X0301170Y0276485D01*
X0301170Y0278985D01*
X0301170Y0280235D01*
X0306170Y0285235D01*
X0329920Y0285235D01*
X0333670Y0281485D01*
X0333670Y0276485D01*
X0334920Y0275235D01*
D20*
X0185855Y0136643D03*
X0205540Y0085461D03*
D21*
X0060855Y0159280D03*
X0356131Y0041170D03*
M02*
